<?xml version="1.0" encoding="utf-8"?>
<!-- Generator: Adobe Illustrator 17.0.0, SVG Export Plug-In . SVG Version: 6.00 Build 0)  -->
<!DOCTYPE svg PUBLIC "-//W3C//DTD SVG 1.1 Tiny//EN" "http://www.w3.org/Graphics/SVG/1.1/DTD/svg11-tiny.dtd">
<svg version="1.1" baseProfile="tiny" id="Layer_1" xmlns="http://www.w3.org/2000/svg" xmlns:xlink="http://www.w3.org/1999/xlink"
	 x="0px" y="0px" width="100px" height="100px" viewBox="0 0 100 100" overflow="visible" xml:space="preserve">
<g>
	<circle fill="#ED1C24" cx="50" cy="50" r="49"/>
	<path fill="#FFFFFF" d="M58.775,50.776L70.29,39.261c2.424-2.423,2.424-6.353,0-8.775c-2.421-2.424-6.354-2.424-8.775,0L50,42
		L38.485,30.486c-2.421-2.424-6.354-2.424-8.775,0c-2.424,2.423-2.424,6.353,0,8.775l11.515,11.515L29.71,62.29
		c-2.424,2.423-2.424,6.353,0,8.775c1.21,1.212,2.8,1.818,4.388,1.818s3.177-0.606,4.388-1.818L50,59.551l11.515,11.515
		c1.21,1.212,2.8,1.818,4.388,1.818s3.177-0.606,4.388-1.818c2.424-2.423,2.424-6.353,0-8.775L58.775,50.776z"/>
</g>
</svg>
